# MagicaVoxel @ Ephtracy

# group
o 

# material
mtllib bioms-1.mtl
usemtl palette

# normals
vn -1 0 0
vn 1 0 0
vn 0 0 1
vn 0 0 -1
vn 0 -1 0
vn 0 1 0

# texcoords
vt 0.205078 0.5
vt 0.486328 0.5
vt 0.626953 0.5
vt 0.966797 0.5
vt 0.970703 0.5
vt 0.978516 0.5

# verts
v 12.8 0 12.8
v 12.8 0 -12.8
v 12.8 0.1 0.200001
v 12.8 0.1 -0.599999
v 12.8 0.2 12.8
v 12.8 0.2 0.200001
v 12.8 0.2 -0.599999
v 12.8 0.2 -12.8
v 38.4 0 12.8
v 38.4 0 -12.8
v 38.4 0.1 12.8
v 38.4 0.1 -12.8
v 38.4 0.2 12.8
v 38.4 0.2 -12.8
v 12.8 0 12.8
v 12.8 0.2 12.8
v 13.2 0.1 12.8
v 13.2 0.2 12.8
v 13.7 0.1 12.8
v 13.7 0.2 12.8
v 16.9 0.1 12.8
v 16.9 0.2 12.8
v 38.4 0 12.8
v 38.4 0.1 12.8
v 38.4 0.2 12.8
v 12.8 0 -12.8
v 12.8 0.2 -12.8
v 13 0.1 -12.8
v 13 0.2 -12.8
v 13.7 0.1 -12.8
v 13.7 0.2 -12.8
v 15.2 0.1 -12.8
v 15.2 0.2 -12.8
v 15.3 0.1 -12.8
v 15.3 0.2 -12.8
v 16.9 0.1 -12.8
v 16.9 0.2 -12.8
v 31.7 0.1 -12.8
v 31.7 0.2 -12.8
v 33.3 0.1 -12.8
v 33.3 0.2 -12.8
v 33.4 0.1 -12.8
v 33.4 0.2 -12.8
v 34.9 0.1 -12.8
v 34.9 0.2 -12.8
v 38.4 0 -12.8
v 38.4 0.1 -12.8
v 38.4 0.2 -12.8
v 12.8 0 12.8
v 38.4 0 12.8
v 12.8 0 -12.8
v 38.4 0 -12.8
v 12.8 0.2 12.8
v 13.2 0.2 12.8
v 13.7 0.2 12.8
v 16.9 0.2 12.8
v 38.4 0.2 12.8
v 15.2 0.2 12.7
v 15.3 0.2 12.7
v 13.1 0.2 12.3
v 13.2 0.2 12.3
v 15.2 0.2 12.1
v 15.3 0.2 12.1
v 13.1 0.2 11.5
v 13.2 0.2 11.5
v 13.2 0.2 11.3
v 13.3 0.2 11.3
v 13.2 0.2 11.2
v 13.3 0.2 11.2
v 15.2 0.2 11.2
v 15.3 0.2 11.2
v 16.9 0.2 10.9
v 34.9 0.2 10.9
v 15.2 0.2 10.8
v 15.3 0.2 10.8
v 13.1 0.2 10.7
v 13.2 0.2 10.7
v 13.1 0.2 9.6
v 13.2 0.2 9.6
v 13.2 0.2 9.4
v 13.3 0.2 9.4
v 16.8 0.2 9.4
v 17.6 0.2 9.4
v 18.9 0.2 9.4
v 19.7 0.2 9.4
v 20.9 0.2 9.4
v 21.7 0.2 9.4
v 22.9 0.2 9.4
v 23.7 0.2 9.4
v 24.9 0.2 9.4
v 25.7 0.2 9.4
v 26.9 0.2 9.4
v 27.7 0.2 9.4
v 28.9 0.2 9.4
v 29.7 0.2 9.4
v 30.9 0.2 9.4
v 31.7 0.2 9.4
v 32.9 0.2 9.4
v 33.3 0.2 9.4
v 16.8 0.2 9.3
v 17.6 0.2 9.3
v 18.9 0.2 9.3
v 19.7 0.2 9.3
v 20.9 0.2 9.3
v 21.7 0.2 9.3
v 22.9 0.2 9.3
v 23.7 0.2 9.3
v 24.9 0.2 9.3
v 25.7 0.2 9.3
v 26.9 0.2 9.3
v 27.7 0.2 9.3
v 28.9 0.2 9.3
v 29.7 0.2 9.3
v 30.9 0.2 9.3
v 31.7 0.2 9.3
v 32.9 0.2 9.3
v 33.3 0.2 9.3
v 33.4 0.2 9.3
v 33.3 0.2 8.9
v 33.4 0.2 8.9
v 13.2 0.2 8.8
v 13.3 0.2 8.8
v 13.1 0.2 8.6
v 13.2 0.2 8.6
v 13.1 0.2 8.1
v 13.2 0.2 8.1
v 13.2 0.2 7.9
v 13.3 0.2 7.9
v 16.9 0.2 7.7
v 31.7 0.2 7.7
v 33.3 0.2 7.7
v 33.4 0.2 7.7
v 13.2 0.2 7.6
v 13.3 0.2 7.6
v 15.2 0.2 7.4
v 15.3 0.2 7.4
v 15.2 0.2 6.9
v 15.3 0.2 6.9
v 33.3 0.2 6.9
v 33.4 0.2 6.9
v 13.2 0.2 6.2
v 13.3 0.2 6.2
v 15.2 0.2 6
v 15.3 0.2 6
v 13.2 0.2 5.9
v 13.3 0.2 5.9
v 33.3 0.2 5.7
v 33.4 0.2 5.7
v 13.2 0.2 5.4
v 13.3 0.2 5.4
v 15.2 0.2 5.3
v 15.3 0.2 5.3
v 13.2 0.2 5
v 13.3 0.2 5
v 33.3 0.2 4.9
v 33.4 0.2 4.9
v 15.2 0.2 4.4
v 15.3 0.2 4.4
v 33.3 0.2 3.7
v 33.4 0.2 3.7
v 15.2 0.2 3.5
v 15.3 0.2 3.5
v 33.3 0.2 2.9
v 33.4 0.2 2.9
v 13.1 0.2 2.8
v 13.2 0.2 2.8
v 15.2 0.2 2.6
v 15.3 0.2 2.6
v 13.1 0.2 1.7
v 13.2 0.2 1.7
v 15.2 0.2 1.7
v 15.3 0.2 1.7
v 33.3 0.2 1.7
v 33.4 0.2 1.7
v 13.2 0.2 1.5
v 13.3 0.2 1.5
v 33.3 0.2 0.900001
v 33.4 0.2 0.900001
v 15.2 0.2 0.8
v 15.3 0.2 0.8
v 13.2 0.2 0.700001
v 13.3 0.2 0.700001
v 13.1 0.2 0.5
v 13.2 0.2 0.5
v 13 0.2 0.400001
v 13.1 0.2 0.400001
v 12.9 0.2 0.3
v 13 0.2 0.3
v 13.8 0.2 0.3
v 14 0.2 0.3
v 14.2 0.2 0.3
v 14.4 0.2 0.3
v 14.6 0.2 0.3
v 14.8 0.2 0.3
v 15 0.2 0.3
v 15.2 0.2 0.3
v 15.3 0.2 0.3
v 15.4 0.2 0.3
v 15.6 0.2 0.3
v 15.8 0.2 0.3
v 16 0.2 0.3
v 16.2 0.2 0.3
v 16.4 0.2 0.3
v 16.6 0.2 0.3
v 16.8 0.2 0.3
v 12.8 0.2 0.200001
v 12.9 0.2 0.200001
v 13.1 0.2 0.200001
v 13.2 0.2 0.200001
v 33.3 0.2 -0.299999
v 33.4 0.2 -0.299999
v 13 0.2 -0.5
v 13.1 0.2 -0.5
v 12.8 0.2 -0.599999
v 12.9 0.2 -0.599999
v 12.9 0.2 -0.7
v 13 0.2 -0.7
v 13.8 0.2 -0.7
v 14 0.2 -0.7
v 14.2 0.2 -0.7
v 14.4 0.2 -0.7
v 14.6 0.2 -0.7
v 14.8 0.2 -0.7
v 15 0.2 -0.7
v 15.2 0.2 -0.7
v 15.4 0.2 -0.7
v 15.6 0.2 -0.7
v 15.8 0.2 -0.7
v 16 0.2 -0.7
v 16.2 0.2 -0.7
v 16.4 0.2 -0.7
v 16.6 0.2 -0.7
v 16.8 0.2 -0.7
v 13 0.2 -1
v 13.1 0.2 -1
v 15.2 0.2 -1.1
v 15.3 0.2 -1.1
v 33.3 0.2 -1.1
v 33.4 0.2 -1.1
v 15.2 0.2 -2.2
v 15.3 0.2 -2.2
v 33.3 0.2 -2.3
v 33.4 0.2 -2.3
v 13 0.2 -3.1
v 13.1 0.2 -3.1
v 15.2 0.2 -3.1
v 15.3 0.2 -3.1
v 33.3 0.2 -3.1
v 33.4 0.2 -3.1
v 12.9 0.2 -3.3
v 13 0.2 -3.3
v 12.9 0.2 -3.8
v 13 0.2 -3.8
v 33.3 0.2 -4.3
v 33.4 0.2 -4.3
v 15.2 0.2 -4.4
v 15.3 0.2 -4.4
v 33.3 0.2 -5.1
v 33.4 0.2 -5.1
v 13 0.2 -5.3
v 13.1 0.2 -5.3
v 15.2 0.2 -5.3
v 15.3 0.2 -5.3
v 13.1 0.2 -5.5
v 13.2 0.2 -5.5
v 13.2 0.2 -5.7
v 13.3 0.2 -5.7
v 13.2 0.2 -5.8
v 13.3 0.2 -5.8
v 13.1 0.2 -6.2
v 13.2 0.2 -6.2
v 15.2 0.2 -6.3
v 15.3 0.2 -6.3
v 33.3 0.2 -6.3
v 33.4 0.2 -6.3
v 33.3 0.2 -7.1
v 33.4 0.2 -7.1
v 15.2 0.2 -7.2
v 15.3 0.2 -7.2
v 13 0.2 -7.6
v 13.1 0.2 -7.6
v 13 0.2 -8.1
v 13.1 0.2 -8.1
v 33.3 0.2 -8.3
v 33.4 0.2 -8.3
v 13.1 0.2 -8.6
v 13.2 0.2 -8.6
v 15.2 0.2 -8.6
v 15.3 0.2 -8.6
v 13.1 0.2 -9.1
v 13.2 0.2 -9.1
v 33.3 0.2 -9.1
v 33.4 0.2 -9.1
v 15.2 0.2 -9.5
v 15.3 0.2 -9.5
v 33.3 0.2 -10.3
v 33.4 0.2 -10.3
v 13.1 0.2 -10.8
v 13.2 0.2 -10.8
v 15.2 0.2 -10.8
v 15.3 0.2 -10.8
v 33.3 0.2 -11.1
v 33.4 0.2 -11.1
v 13.1 0.2 -11.3
v 13.2 0.2 -11.3
v 15.2 0.2 -11.7
v 15.3 0.2 -11.7
v 13 0.2 -12.3
v 13.1 0.2 -12.3
v 33.3 0.2 -12.3
v 33.4 0.2 -12.3
v 12.8 0.2 -12.8
v 13 0.2 -12.8
v 13.7 0.2 -12.8
v 15.2 0.2 -12.8
v 15.3 0.2 -12.8
v 16.9 0.2 -12.8
v 31.7 0.2 -12.8
v 33.3 0.2 -12.8
v 33.4 0.2 -12.8
v 34.9 0.2 -12.8
v 38.4 0.2 -12.8

# faces
f 3/3/1 2/3/1 1/3/1
f 4/3/1 2/3/1 3/3/1
f 5/3/1 3/3/1 1/3/1
f 6/2/1 4/2/1 3/2/1
f 6/3/1 3/3/1 5/3/1
f 7/3/1 2/3/1 4/3/1
f 7/2/1 4/2/1 6/2/1
f 8/3/1 2/3/1 7/3/1
f 9/3/2 10/3/2 11/3/2
f 11/3/2 10/3/2 12/3/2
f 11/5/2 12/5/2 13/5/2
f 13/5/2 12/5/2 14/5/2
f 17/3/3 16/3/3 15/3/3
f 18/3/3 16/3/3 17/3/3
f 19/3/3 17/3/3 15/3/3
f 19/1/3 18/1/3 17/1/3
f 20/1/3 18/1/3 19/1/3
f 21/3/3 19/3/3 15/3/3
f 21/6/3 20/6/3 19/6/3
f 22/6/3 20/6/3 21/6/3
f 23/3/3 21/3/3 15/3/3
f 24/5/3 22/5/3 21/5/3
f 24/3/3 21/3/3 23/3/3
f 25/5/3 22/5/3 24/5/3
f 26/3/4 27/3/4 28/3/4
f 28/3/4 27/3/4 29/3/4
f 26/3/4 28/3/4 30/3/4
f 28/1/4 29/1/4 30/1/4
f 30/1/4 29/1/4 31/1/4
f 26/3/4 30/3/4 32/3/4
f 30/6/4 31/6/4 32/6/4
f 32/6/4 31/6/4 33/6/4
f 26/3/4 32/3/4 34/3/4
f 32/5/4 33/5/4 34/5/4
f 34/5/4 33/5/4 35/5/4
f 26/3/4 34/3/4 36/3/4
f 34/6/4 35/6/4 36/6/4
f 36/6/4 35/6/4 37/6/4
f 26/3/4 36/3/4 38/3/4
f 36/5/4 37/5/4 38/5/4
f 38/5/4 37/5/4 39/5/4
f 26/3/4 38/3/4 40/3/4
f 38/6/4 39/6/4 40/6/4
f 40/6/4 39/6/4 41/6/4
f 26/3/4 40/3/4 42/3/4
f 40/5/4 41/5/4 42/5/4
f 42/5/4 41/5/4 43/5/4
f 26/3/4 42/3/4 44/3/4
f 42/6/4 43/6/4 44/6/4
f 44/6/4 43/6/4 45/6/4
f 26/3/4 44/3/4 46/3/4
f 44/5/4 45/5/4 47/5/4
f 46/3/4 44/3/4 47/3/4
f 47/5/4 45/5/4 48/5/4
f 51/3/5 50/3/5 49/3/5
f 52/3/5 50/3/5 51/3/5
f 55/6/6 56/6/6 58/6/6
f 58/6/6 56/6/6 59/6/6
f 53/3/6 54/3/6 60/3/6
f 54/1/6 55/1/6 61/1/6
f 60/3/6 54/3/6 61/3/6
f 55/6/6 58/6/6 62/6/6
f 58/5/6 59/5/6 62/5/6
f 59/6/6 56/6/6 63/6/6
f 62/5/6 59/5/6 63/5/6
f 53/3/6 60/3/6 64/3/6
f 60/1/6 61/1/6 64/1/6
f 61/1/6 55/1/6 65/1/6
f 64/1/6 61/1/6 65/1/6
f 64/3/6 65/3/6 66/3/6
f 65/1/6 55/1/6 66/1/6
f 66/1/6 55/1/6 67/1/6
f 64/3/6 66/3/6 68/3/6
f 66/3/6 67/3/6 68/3/6
f 67/1/6 55/1/6 69/1/6
f 68/3/6 67/3/6 69/3/6
f 55/6/6 62/6/6 70/6/6
f 62/6/6 63/6/6 70/6/6
f 63/6/6 56/6/6 71/6/6
f 70/6/6 63/6/6 71/6/6
f 56/5/6 57/5/6 72/5/6
f 71/6/6 56/6/6 72/6/6
f 72/5/6 57/5/6 73/5/6
f 55/6/6 70/6/6 74/6/6
f 70/5/6 71/5/6 74/5/6
f 72/6/6 73/6/6 75/6/6
f 74/5/6 71/5/6 75/5/6
f 71/6/6 72/6/6 75/6/6
f 53/3/6 64/3/6 76/3/6
f 64/3/6 68/3/6 76/3/6
f 68/1/6 69/1/6 77/1/6
f 76/3/6 68/3/6 77/3/6
f 53/3/6 76/3/6 78/3/6
f 76/1/6 77/1/6 78/1/6
f 77/1/6 69/1/6 79/1/6
f 78/1/6 77/1/6 79/1/6
f 78/3/6 79/3/6 80/3/6
f 79/1/6 69/1/6 80/1/6
f 69/1/6 55/1/6 81/1/6
f 80/1/6 69/1/6 81/1/6
f 75/6/6 73/6/6 82/6/6
f 74/6/6 75/6/6 82/6/6
f 82/6/6 73/6/6 83/6/6
f 83/6/6 73/6/6 84/6/6
f 84/6/6 73/6/6 85/6/6
f 85/6/6 73/6/6 86/6/6
f 86/6/6 73/6/6 87/6/6
f 87/6/6 73/6/6 88/6/6
f 88/6/6 73/6/6 89/6/6
f 89/6/6 73/6/6 90/6/6
f 90/6/6 73/6/6 91/6/6
f 91/6/6 73/6/6 92/6/6
f 92/6/6 73/6/6 93/6/6
f 93/6/6 73/6/6 94/6/6
f 94/6/6 73/6/6 95/6/6
f 95/6/6 73/6/6 96/6/6
f 96/6/6 73/6/6 97/6/6
f 97/6/6 73/6/6 98/6/6
f 98/6/6 73/6/6 99/6/6
f 74/6/6 82/6/6 100/6/6
f 82/5/6 83/5/6 100/5/6
f 83/6/6 84/6/6 101/6/6
f 100/5/6 83/5/6 101/5/6
f 84/5/6 85/5/6 102/5/6
f 101/6/6 84/6/6 102/6/6
f 85/6/6 86/6/6 103/6/6
f 102/5/6 85/5/6 103/5/6
f 86/5/6 87/5/6 104/5/6
f 103/6/6 86/6/6 104/6/6
f 87/6/6 88/6/6 105/6/6
f 104/5/6 87/5/6 105/5/6
f 88/5/6 89/5/6 106/5/6
f 105/6/6 88/6/6 106/6/6
f 89/6/6 90/6/6 107/6/6
f 106/5/6 89/5/6 107/5/6
f 90/5/6 91/5/6 108/5/6
f 107/6/6 90/6/6 108/6/6
f 91/6/6 92/6/6 109/6/6
f 108/5/6 91/5/6 109/5/6
f 92/5/6 93/5/6 110/5/6
f 109/6/6 92/6/6 110/6/6
f 93/6/6 94/6/6 111/6/6
f 110/5/6 93/5/6 111/5/6
f 94/5/6 95/5/6 112/5/6
f 111/6/6 94/6/6 112/6/6
f 95/6/6 96/6/6 113/6/6
f 112/5/6 95/5/6 113/5/6
f 96/5/6 97/5/6 114/5/6
f 113/6/6 96/6/6 114/6/6
f 97/6/6 98/6/6 115/6/6
f 114/5/6 97/5/6 115/5/6
f 98/5/6 99/5/6 116/5/6
f 115/6/6 98/6/6 116/6/6
f 99/6/6 73/6/6 117/6/6
f 116/5/6 99/5/6 117/5/6
f 117/6/6 73/6/6 118/6/6
f 115/6/6 116/6/6 119/6/6
f 114/6/6 115/6/6 119/6/6
f 117/5/6 118/5/6 119/5/6
f 116/6/6 117/6/6 119/6/6
f 113/6/6 114/6/6 119/6/6
f 112/6/6 113/6/6 119/6/6
f 111/6/6 112/6/6 119/6/6
f 110/6/6 111/6/6 119/6/6
f 109/6/6 110/6/6 119/6/6
f 108/6/6 109/6/6 119/6/6
f 107/6/6 108/6/6 119/6/6
f 106/6/6 107/6/6 119/6/6
f 105/6/6 106/6/6 119/6/6
f 104/6/6 105/6/6 119/6/6
f 103/6/6 104/6/6 119/6/6
f 102/6/6 103/6/6 119/6/6
f 101/6/6 102/6/6 119/6/6
f 100/6/6 101/6/6 119/6/6
f 118/6/6 73/6/6 120/6/6
f 119/5/6 118/5/6 120/5/6
f 78/3/6 80/3/6 121/3/6
f 80/3/6 81/3/6 121/3/6
f 81/1/6 55/1/6 122/1/6
f 121/3/6 81/3/6 122/3/6
f 78/3/6 121/3/6 123/3/6
f 53/3/6 78/3/6 123/3/6
f 121/1/6 122/1/6 124/1/6
f 123/3/6 121/3/6 124/3/6
f 53/3/6 123/3/6 125/3/6
f 123/1/6 124/1/6 125/1/6
f 124/1/6 122/1/6 126/1/6
f 125/1/6 124/1/6 126/1/6
f 125/3/6 126/3/6 127/3/6
f 126/1/6 122/1/6 127/1/6
f 122/1/6 55/1/6 128/1/6
f 127/1/6 122/1/6 128/1/6
f 119/6/6 120/6/6 129/6/6
f 100/6/6 119/6/6 129/6/6
f 129/6/6 120/6/6 130/6/6
f 130/6/6 120/6/6 131/6/6
f 120/6/6 73/6/6 132/6/6
f 131/6/6 120/6/6 132/6/6
f 125/3/6 127/3/6 133/3/6
f 127/3/6 128/3/6 133/3/6
f 128/1/6 55/1/6 134/1/6
f 133/3/6 128/3/6 134/3/6
f 55/6/6 74/6/6 135/6/6
f 74/6/6 100/6/6 135/6/6
f 100/6/6 129/6/6 135/6/6
f 135/6/6 129/6/6 136/6/6
f 55/6/6 135/6/6 137/6/6
f 135/5/6 136/5/6 137/5/6
f 136/6/6 129/6/6 138/6/6
f 137/5/6 136/5/6 138/5/6
f 130/6/6 131/6/6 139/6/6
f 131/5/6 132/5/6 139/5/6
f 132/6/6 73/6/6 140/6/6
f 139/5/6 132/5/6 140/5/6
f 125/3/6 133/3/6 141/3/6
f 133/1/6 134/1/6 141/1/6
f 134/1/6 55/1/6 142/1/6
f 141/1/6 134/1/6 142/1/6
f 137/6/6 138/6/6 143/6/6
f 55/6/6 137/6/6 143/6/6
f 138/6/6 129/6/6 144/6/6
f 143/6/6 138/6/6 144/6/6
f 125/3/6 141/3/6 145/3/6
f 141/3/6 142/3/6 145/3/6
f 142/1/6 55/1/6 146/1/6
f 145/3/6 142/3/6 146/3/6
f 130/6/6 139/6/6 147/6/6
f 139/6/6 140/6/6 147/6/6
f 140/6/6 73/6/6 148/6/6
f 147/6/6 140/6/6 148/6/6
f 125/3/6 145/3/6 149/3/6
f 145/1/6 146/1/6 149/1/6
f 146/1/6 55/1/6 150/1/6
f 149/1/6 146/1/6 150/1/6
f 55/6/6 143/6/6 151/6/6
f 143/5/6 144/5/6 151/5/6
f 144/6/6 129/6/6 152/6/6
f 151/5/6 144/5/6 152/5/6
f 125/3/6 149/3/6 153/3/6
f 149/3/6 150/3/6 153/3/6
f 150/1/6 55/1/6 154/1/6
f 153/3/6 150/3/6 154/3/6
f 130/6/6 147/6/6 155/6/6
f 147/5/6 148/5/6 155/5/6
f 148/6/6 73/6/6 156/6/6
f 155/5/6 148/5/6 156/5/6
f 55/6/6 151/6/6 157/6/6
f 151/6/6 152/6/6 157/6/6
f 152/6/6 129/6/6 158/6/6
f 157/6/6 152/6/6 158/6/6
f 130/6/6 155/6/6 159/6/6
f 155/6/6 156/6/6 159/6/6
f 156/6/6 73/6/6 160/6/6
f 159/6/6 156/6/6 160/6/6
f 55/6/6 157/6/6 161/6/6
f 157/5/6 158/5/6 161/5/6
f 158/6/6 129/6/6 162/6/6
f 161/5/6 158/5/6 162/5/6
f 130/6/6 159/6/6 163/6/6
f 159/5/6 160/5/6 163/5/6
f 160/6/6 73/6/6 164/6/6
f 163/5/6 160/5/6 164/5/6
f 125/3/6 153/3/6 165/3/6
f 53/3/6 125/3/6 165/3/6
f 153/1/6 154/1/6 166/1/6
f 165/3/6 153/3/6 166/3/6
f 55/6/6 161/6/6 167/6/6
f 161/6/6 162/6/6 167/6/6
f 162/6/6 129/6/6 168/6/6
f 167/6/6 162/6/6 168/6/6
f 53/3/6 165/3/6 169/3/6
f 165/1/6 166/1/6 169/1/6
f 166/1/6 154/1/6 170/1/6
f 169/1/6 166/1/6 170/1/6
f 55/6/6 167/6/6 171/6/6
f 167/5/6 168/5/6 171/5/6
f 168/6/6 129/6/6 172/6/6
f 171/5/6 168/5/6 172/5/6
f 130/6/6 163/6/6 173/6/6
f 163/6/6 164/6/6 173/6/6
f 164/6/6 73/6/6 174/6/6
f 173/6/6 164/6/6 174/6/6
f 170/1/6 154/1/6 175/1/6
f 169/3/6 170/3/6 175/3/6
f 154/1/6 55/1/6 176/1/6
f 175/1/6 154/1/6 176/1/6
f 130/6/6 173/6/6 177/6/6
f 173/5/6 174/5/6 177/5/6
f 174/6/6 73/6/6 178/6/6
f 177/5/6 174/5/6 178/5/6
f 171/6/6 172/6/6 179/6/6
f 55/6/6 171/6/6 179/6/6
f 172/6/6 129/6/6 180/6/6
f 179/6/6 172/6/6 180/6/6
f 169/3/6 175/3/6 181/3/6
f 175/3/6 176/3/6 181/3/6
f 176/1/6 55/1/6 182/1/6
f 181/3/6 176/3/6 182/3/6
f 169/3/6 181/3/6 183/3/6
f 53/3/6 169/3/6 183/3/6
f 181/1/6 182/1/6 184/1/6
f 183/3/6 181/3/6 184/3/6
f 53/3/6 183/3/6 185/3/6
f 183/2/6 184/2/6 186/2/6
f 185/3/6 183/3/6 186/3/6
f 53/3/6 185/3/6 187/3/6
f 185/2/6 186/2/6 188/2/6
f 187/3/6 185/3/6 188/3/6
f 55/6/6 179/6/6 189/6/6
f 189/6/6 179/6/6 190/6/6
f 190/6/6 179/6/6 191/6/6
f 191/6/6 179/6/6 192/6/6
f 192/6/6 179/6/6 193/6/6
f 193/6/6 179/6/6 194/6/6
f 194/6/6 179/6/6 195/6/6
f 179/5/6 180/5/6 196/5/6
f 195/6/6 179/6/6 196/6/6
f 180/6/6 129/6/6 197/6/6
f 196/5/6 180/5/6 197/5/6
f 197/6/6 129/6/6 198/6/6
f 198/6/6 129/6/6 199/6/6
f 199/6/6 129/6/6 200/6/6
f 200/6/6 129/6/6 201/6/6
f 201/6/6 129/6/6 202/6/6
f 202/6/6 129/6/6 203/6/6
f 203/6/6 129/6/6 204/6/6
f 204/6/6 129/6/6 205/6/6
f 53/3/6 187/3/6 206/3/6
f 187/2/6 188/2/6 207/2/6
f 206/3/6 187/3/6 207/3/6
f 188/2/6 186/2/6 208/2/6
f 207/2/6 188/2/6 208/2/6
f 186/2/6 184/2/6 208/2/6
f 184/1/6 182/1/6 209/1/6
f 208/2/6 184/2/6 209/2/6
f 130/6/6 177/6/6 210/6/6
f 177/6/6 178/6/6 210/6/6
f 178/6/6 73/6/6 211/6/6
f 210/6/6 178/6/6 211/6/6
f 206/2/6 207/2/6 212/2/6
f 207/2/6 208/2/6 212/2/6
f 208/1/6 209/1/6 213/1/6
f 212/2/6 208/2/6 213/2/6
f 206/2/6 212/2/6 214/2/6
f 214/2/6 212/2/6 215/2/6
f 214/3/6 215/3/6 216/3/6
f 215/2/6 212/2/6 216/2/6
f 212/1/6 213/1/6 217/1/6
f 216/2/6 212/2/6 217/2/6
f 55/6/6 189/6/6 218/6/6
f 189/4/6 190/4/6 218/4/6
f 190/6/6 191/6/6 219/6/6
f 218/4/6 190/4/6 219/4/6
f 191/4/6 192/4/6 220/4/6
f 219/6/6 191/6/6 220/6/6
f 192/6/6 193/6/6 221/6/6
f 220/4/6 192/4/6 221/4/6
f 193/4/6 194/4/6 222/4/6
f 221/6/6 193/6/6 222/6/6
f 194/6/6 195/6/6 223/6/6
f 222/4/6 194/4/6 223/4/6
f 195/4/6 196/4/6 224/4/6
f 223/6/6 195/6/6 224/6/6
f 196/6/6 197/6/6 225/6/6
f 224/4/6 196/4/6 225/4/6
f 197/6/6 198/6/6 225/6/6
f 198/4/6 199/4/6 226/4/6
f 225/6/6 198/6/6 226/6/6
f 199/6/6 200/6/6 227/6/6
f 226/4/6 199/4/6 227/4/6
f 200/4/6 201/4/6 228/4/6
f 227/6/6 200/6/6 228/6/6
f 201/6/6 202/6/6 229/6/6
f 228/4/6 201/4/6 229/4/6
f 202/4/6 203/4/6 230/4/6
f 229/6/6 202/6/6 230/6/6
f 203/6/6 204/6/6 231/6/6
f 230/4/6 203/4/6 231/4/6
f 204/4/6 205/4/6 232/4/6
f 231/6/6 204/6/6 232/6/6
f 205/6/6 129/6/6 233/6/6
f 232/4/6 205/4/6 233/4/6
f 217/1/6 213/1/6 234/1/6
f 216/3/6 217/3/6 234/3/6
f 213/1/6 209/1/6 235/1/6
f 234/1/6 213/1/6 235/1/6
f 222/6/6 223/6/6 236/6/6
f 221/6/6 222/6/6 236/6/6
f 230/6/6 231/6/6 236/6/6
f 231/6/6 232/6/6 236/6/6
f 229/6/6 230/6/6 236/6/6
f 228/6/6 229/6/6 236/6/6
f 227/6/6 228/6/6 236/6/6
f 226/6/6 227/6/6 236/6/6
f 225/6/6 226/6/6 236/6/6
f 224/6/6 225/6/6 236/6/6
f 232/6/6 233/6/6 236/6/6
f 223/6/6 224/6/6 236/6/6
f 220/6/6 221/6/6 236/6/6
f 219/6/6 220/6/6 236/6/6
f 218/6/6 219/6/6 236/6/6
f 236/6/6 233/6/6 237/6/6
f 130/6/6 210/6/6 238/6/6
f 210/5/6 211/5/6 238/5/6
f 211/6/6 73/6/6 239/6/6
f 238/5/6 211/5/6 239/5/6
f 236/5/6 237/5/6 240/5/6
f 218/6/6 236/6/6 240/6/6
f 237/6/6 233/6/6 241/6/6
f 240/5/6 237/5/6 241/5/6
f 130/6/6 238/6/6 242/6/6
f 238/6/6 239/6/6 242/6/6
f 239/6/6 73/6/6 243/6/6
f 242/6/6 239/6/6 243/6/6
f 216/3/6 234/3/6 244/3/6
f 234/3/6 235/3/6 244/3/6
f 235/1/6 209/1/6 245/1/6
f 244/3/6 235/3/6 245/3/6
f 218/6/6 240/6/6 246/6/6
f 240/6/6 241/6/6 246/6/6
f 241/6/6 233/6/6 247/6/6
f 246/6/6 241/6/6 247/6/6
f 130/6/6 242/6/6 248/6/6
f 242/5/6 243/5/6 248/5/6
f 243/6/6 73/6/6 249/6/6
f 248/5/6 243/5/6 249/5/6
f 216/3/6 244/3/6 250/3/6
f 214/3/6 216/3/6 250/3/6
f 244/1/6 245/1/6 251/1/6
f 250/3/6 244/3/6 251/3/6
f 214/3/6 250/3/6 252/3/6
f 250/1/6 251/1/6 252/1/6
f 251/1/6 245/1/6 253/1/6
f 252/1/6 251/1/6 253/1/6
f 130/6/6 248/6/6 254/6/6
f 248/6/6 249/6/6 254/6/6
f 249/6/6 73/6/6 255/6/6
f 254/6/6 249/6/6 255/6/6
f 218/6/6 246/6/6 256/6/6
f 246/5/6 247/5/6 256/5/6
f 247/6/6 233/6/6 257/6/6
f 256/5/6 247/5/6 257/5/6
f 130/6/6 254/6/6 258/6/6
f 254/5/6 255/5/6 258/5/6
f 255/6/6 73/6/6 259/6/6
f 258/5/6 255/5/6 259/5/6
f 253/1/6 245/1/6 260/1/6
f 252/3/6 253/3/6 260/3/6
f 245/1/6 209/1/6 261/1/6
f 260/1/6 245/1/6 261/1/6
f 218/6/6 256/6/6 262/6/6
f 256/6/6 257/6/6 262/6/6
f 257/6/6 233/6/6 263/6/6
f 262/6/6 257/6/6 263/6/6
f 261/1/6 209/1/6 264/1/6
f 260/3/6 261/3/6 264/3/6
f 209/1/6 182/1/6 265/1/6
f 264/1/6 209/1/6 265/1/6
f 264/3/6 265/3/6 266/3/6
f 265/1/6 182/1/6 266/1/6
f 182/1/6 55/1/6 267/1/6
f 266/1/6 182/1/6 267/1/6
f 264/3/6 266/3/6 268/3/6
f 266/3/6 267/3/6 268/3/6
f 267/1/6 55/1/6 269/1/6
f 268/3/6 267/3/6 269/3/6
f 264/3/6 268/3/6 270/3/6
f 260/3/6 264/3/6 270/3/6
f 268/1/6 269/1/6 271/1/6
f 270/3/6 268/3/6 271/3/6
f 218/6/6 262/6/6 272/6/6
f 262/5/6 263/5/6 272/5/6
f 263/6/6 233/6/6 273/6/6
f 272/5/6 263/5/6 273/5/6
f 130/6/6 258/6/6 274/6/6
f 258/6/6 259/6/6 274/6/6
f 259/6/6 73/6/6 275/6/6
f 274/6/6 259/6/6 275/6/6
f 130/6/6 274/6/6 276/6/6
f 274/5/6 275/5/6 276/5/6
f 275/6/6 73/6/6 277/6/6
f 276/5/6 275/5/6 277/5/6
f 218/6/6 272/6/6 278/6/6
f 272/6/6 273/6/6 278/6/6
f 273/6/6 233/6/6 279/6/6
f 278/6/6 273/6/6 279/6/6
f 260/3/6 270/3/6 280/3/6
f 252/3/6 260/3/6 280/3/6
f 270/1/6 271/1/6 281/1/6
f 280/3/6 270/3/6 281/3/6
f 252/3/6 280/3/6 282/3/6
f 280/1/6 281/1/6 282/1/6
f 281/1/6 271/1/6 283/1/6
f 282/1/6 281/1/6 283/1/6
f 130/6/6 276/6/6 284/6/6
f 276/6/6 277/6/6 284/6/6
f 277/6/6 73/6/6 285/6/6
f 284/6/6 277/6/6 285/6/6
f 283/1/6 271/1/6 286/1/6
f 282/3/6 283/3/6 286/3/6
f 271/1/6 269/1/6 287/1/6
f 286/1/6 271/1/6 287/1/6
f 218/6/6 278/6/6 288/6/6
f 278/5/6 279/5/6 288/5/6
f 279/6/6 233/6/6 289/6/6
f 288/5/6 279/5/6 289/5/6
f 286/3/6 287/3/6 290/3/6
f 282/3/6 286/3/6 290/3/6
f 287/1/6 269/1/6 291/1/6
f 290/3/6 287/3/6 291/3/6
f 130/6/6 284/6/6 292/6/6
f 284/5/6 285/5/6 292/5/6
f 285/6/6 73/6/6 293/6/6
f 292/5/6 285/5/6 293/5/6
f 218/6/6 288/6/6 294/6/6
f 288/6/6 289/6/6 294/6/6
f 289/6/6 233/6/6 295/6/6
f 294/6/6 289/6/6 295/6/6
f 292/6/6 293/6/6 296/6/6
f 130/6/6 292/6/6 296/6/6
f 293/6/6 73/6/6 297/6/6
f 296/6/6 293/6/6 297/6/6
f 282/3/6 290/3/6 298/3/6
f 290/1/6 291/1/6 298/1/6
f 291/1/6 269/1/6 299/1/6
f 298/1/6 291/1/6 299/1/6
f 218/6/6 294/6/6 300/6/6
f 294/5/6 295/5/6 300/5/6
f 295/6/6 233/6/6 301/6/6
f 300/5/6 295/5/6 301/5/6
f 130/6/6 296/6/6 302/6/6
f 296/5/6 297/5/6 302/5/6
f 297/6/6 73/6/6 303/6/6
f 302/5/6 297/5/6 303/5/6
f 282/3/6 298/3/6 304/3/6
f 298/3/6 299/3/6 304/3/6
f 299/1/6 269/1/6 305/1/6
f 304/3/6 299/3/6 305/3/6
f 218/6/6 300/6/6 306/6/6
f 300/6/6 301/6/6 306/6/6
f 301/6/6 233/6/6 307/6/6
f 306/6/6 301/6/6 307/6/6
f 282/3/6 304/3/6 308/3/6
f 252/3/6 282/3/6 308/3/6
f 304/1/6 305/1/6 309/1/6
f 308/3/6 304/3/6 309/3/6
f 130/6/6 302/6/6 310/6/6
f 302/6/6 303/6/6 310/6/6
f 303/6/6 73/6/6 311/6/6
f 310/6/6 303/6/6 311/6/6
f 252/3/6 308/3/6 312/3/6
f 214/3/6 252/3/6 312/3/6
f 308/1/6 309/1/6 313/1/6
f 312/3/6 308/3/6 313/3/6
f 269/1/6 55/1/6 314/1/6
f 313/1/6 309/1/6 314/1/6
f 218/6/6 306/6/6 314/6/6
f 309/1/6 305/1/6 314/1/6
f 55/6/6 218/6/6 314/6/6
f 305/1/6 269/1/6 314/1/6
f 306/5/6 307/5/6 315/5/6
f 314/6/6 306/6/6 315/6/6
f 307/6/6 233/6/6 316/6/6
f 315/5/6 307/5/6 316/5/6
f 233/6/6 129/6/6 317/6/6
f 316/6/6 233/6/6 317/6/6
f 129/5/6 130/5/6 317/5/6
f 130/6/6 310/6/6 318/6/6
f 317/5/6 130/5/6 318/5/6
f 310/5/6 311/5/6 319/5/6
f 318/6/6 310/6/6 319/6/6
f 311/6/6 73/6/6 320/6/6
f 319/5/6 311/5/6 320/5/6
f 73/5/6 57/5/6 321/5/6
f 320/6/6 73/6/6 321/6/6
f 321/5/6 57/5/6 322/5/6
