# MagicaVoxel @ Ephtracy

# group
o 

# material
mtllib bioms-0.mtl
usemtl palette

# normals
vn -1 0 0
vn 1 0 0
vn 0 0 1
vn 0 0 -1
vn 0 -1 0
vn 0 1 0

# texcoords
vt 0.205078 0.5
vt 0.486328 0.5
vt 0.626953 0.5
vt 0.966797 0.5
vt 0.970703 0.5
vt 0.978516 0.5

# verts
v 12.8 0 -12.8
v 12.8 0 -38.4
v 12.8 0.1 -27.2
v 12.8 0.1 -27.5
v 12.8 0.2 -12.8
v 12.8 0.2 -27.2
v 12.8 0.2 -27.5
v 12.8 0.2 -38.4
v 38.4 0 -12.8
v 38.4 0 -38.4
v 38.4 0.1 -12.8
v 38.4 0.1 -38.4
v 38.4 0.2 -12.8
v 38.4 0.2 -38.4
v 12.8 0 -12.8
v 12.8 0.2 -12.8
v 13.2 0.1 -12.8
v 13.2 0.2 -12.8
v 13.7 0.1 -12.8
v 13.7 0.2 -12.8
v 16.9 0.1 -12.8
v 16.9 0.2 -12.8
v 31.7 0.1 -12.8
v 31.7 0.2 -12.8
v 33.3 0.1 -12.8
v 33.3 0.2 -12.8
v 33.4 0.1 -12.8
v 33.4 0.2 -12.8
v 34.9 0.1 -12.8
v 34.9 0.2 -12.8
v 38.4 0 -12.8
v 38.4 0.1 -12.8
v 38.4 0.2 -12.8
v 12.8 0 -38.4
v 12.8 0.2 -38.4
v 13 0.1 -38.4
v 13 0.2 -38.4
v 13.7 0.1 -38.4
v 13.7 0.2 -38.4
v 15.2 0.1 -38.4
v 15.2 0.2 -38.4
v 15.3 0.1 -38.4
v 15.3 0.2 -38.4
v 16.9 0.1 -38.4
v 16.9 0.2 -38.4
v 38.4 0 -38.4
v 38.4 0.1 -38.4
v 38.4 0.2 -38.4
v 12.8 0 -12.8
v 38.4 0 -12.8
v 12.8 0 -38.4
v 38.4 0 -38.4
v 12.8 0.2 -12.8
v 13.2 0.2 -12.8
v 13.7 0.2 -12.8
v 16.9 0.2 -12.8
v 31.7 0.2 -12.8
v 33.3 0.2 -12.8
v 33.4 0.2 -12.8
v 34.9 0.2 -12.8
v 38.4 0.2 -12.8
v 13.1 0.2 -13.3
v 13.2 0.2 -13.3
v 33.3 0.2 -13.6
v 33.4 0.2 -13.6
v 15.2 0.2 -13.8
v 15.3 0.2 -13.8
v 13.1 0.2 -14.1
v 13.2 0.2 -14.1
v 13.2 0.2 -14.3
v 13.3 0.2 -14.3
v 13.2 0.2 -14.4
v 13.3 0.2 -14.4
v 15.2 0.2 -14.8
v 15.3 0.2 -14.8
v 13.1 0.2 -14.9
v 13.2 0.2 -14.9
v 33.3 0.2 -14.9
v 33.4 0.2 -14.9
v 33.3 0.2 -15.7
v 33.4 0.2 -15.7
v 15.2 0.2 -15.8
v 15.3 0.2 -15.8
v 13.1 0.2 -16
v 13.2 0.2 -16
v 13.2 0.2 -16.2
v 13.3 0.2 -16.2
v 13.2 0.2 -16.8
v 13.3 0.2 -16.8
v 15.2 0.2 -16.8
v 15.3 0.2 -16.8
v 33.3 0.2 -16.9
v 33.4 0.2 -16.9
v 13.1 0.2 -17
v 13.2 0.2 -17
v 13.1 0.2 -17.5
v 13.2 0.2 -17.5
v 13.2 0.2 -17.7
v 13.3 0.2 -17.7
v 33.3 0.2 -17.7
v 33.4 0.2 -17.7
v 15.2 0.2 -17.8
v 15.3 0.2 -17.8
v 13.2 0.2 -18
v 13.3 0.2 -18
v 15.2 0.2 -18.8
v 15.3 0.2 -18.8
v 33.3 0.2 -18.9
v 33.4 0.2 -18.9
v 13.2 0.2 -19.4
v 13.3 0.2 -19.4
v 13.2 0.2 -19.7
v 13.3 0.2 -19.7
v 33.3 0.2 -19.7
v 33.4 0.2 -19.7
v 15.2 0.2 -19.8
v 15.3 0.2 -19.8
v 13.2 0.2 -20.2
v 13.3 0.2 -20.2
v 13.2 0.2 -20.6
v 13.3 0.2 -20.6
v 15.2 0.2 -20.8
v 15.3 0.2 -20.8
v 33.3 0.2 -20.9
v 33.4 0.2 -20.9
v 33.3 0.2 -21.7
v 33.4 0.2 -21.7
v 15.2 0.2 -21.8
v 15.3 0.2 -21.8
v 13.1 0.2 -22.8
v 13.2 0.2 -22.8
v 15.2 0.2 -22.8
v 15.3 0.2 -22.8
v 33.3 0.2 -22.9
v 33.4 0.2 -22.9
v 33.3 0.2 -23.7
v 33.4 0.2 -23.7
v 15.2 0.2 -23.8
v 15.3 0.2 -23.8
v 13.1 0.2 -23.9
v 13.2 0.2 -23.9
v 13.2 0.2 -24.1
v 13.3 0.2 -24.1
v 15.2 0.2 -24.8
v 15.3 0.2 -24.8
v 13.2 0.2 -24.9
v 13.3 0.2 -24.9
v 33.3 0.2 -24.9
v 33.4 0.2 -24.9
v 13.1 0.2 -25.4
v 13.2 0.2 -25.4
v 33.3 0.2 -25.7
v 33.4 0.2 -25.7
v 15.2 0.2 -25.8
v 15.3 0.2 -25.8
v 13 0.2 -26.1
v 13.1 0.2 -26.1
v 13 0.2 -26.6
v 13.1 0.2 -26.6
v 13.8 0.2 -26.8
v 14 0.2 -26.8
v 14.2 0.2 -26.8
v 14.4 0.2 -26.8
v 14.6 0.2 -26.8
v 14.8 0.2 -26.8
v 15 0.2 -26.8
v 15.2 0.2 -26.8
v 15.3 0.2 -26.8
v 15.4 0.2 -26.8
v 15.6 0.2 -26.8
v 15.8 0.2 -26.8
v 16 0.2 -26.8
v 16.2 0.2 -26.8
v 16.4 0.2 -26.8
v 16.6 0.2 -26.8
v 16.8 0.2 -26.8
v 33.3 0.2 -26.9
v 33.4 0.2 -26.9
v 13 0.2 -27
v 13.1 0.2 -27
v 12.9 0.2 -27.1
v 13 0.2 -27.1
v 12.8 0.2 -27.2
v 12.9 0.2 -27.2
v 12.8 0.2 -27.5
v 12.9 0.2 -27.5
v 12.9 0.2 -27.6
v 13 0.2 -27.6
v 13 0.2 -27.7
v 13.1 0.2 -27.7
v 33.3 0.2 -27.7
v 33.4 0.2 -27.7
v 13.8 0.2 -27.8
v 14 0.2 -27.8
v 14.2 0.2 -27.8
v 14.4 0.2 -27.8
v 14.6 0.2 -27.8
v 14.8 0.2 -27.8
v 15 0.2 -27.8
v 15.2 0.2 -27.8
v 15.3 0.2 -27.8
v 15.4 0.2 -27.8
v 15.6 0.2 -27.8
v 15.8 0.2 -27.8
v 16 0.2 -27.8
v 16.2 0.2 -27.8
v 16.4 0.2 -27.8
v 16.6 0.2 -27.8
v 16.8 0.2 -27.8
v 13 0.2 -28.7
v 13.1 0.2 -28.7
v 15.2 0.2 -28.8
v 15.3 0.2 -28.8
v 12.9 0.2 -28.9
v 13 0.2 -28.9
v 33.3 0.2 -28.9
v 33.4 0.2 -28.9
v 12.9 0.2 -29.4
v 13 0.2 -29.4
v 33.3 0.2 -29.7
v 33.4 0.2 -29.7
v 15.2 0.2 -29.8
v 15.3 0.2 -29.8
v 15.2 0.2 -30.8
v 15.3 0.2 -30.8
v 13 0.2 -30.9
v 13.1 0.2 -30.9
v 33.3 0.2 -30.9
v 33.4 0.2 -30.9
v 13.1 0.2 -31.1
v 13.2 0.2 -31.1
v 13.2 0.2 -31.3
v 13.3 0.2 -31.3
v 13.2 0.2 -31.4
v 13.3 0.2 -31.4
v 33.3 0.2 -31.7
v 33.4 0.2 -31.7
v 13.1 0.2 -31.8
v 13.2 0.2 -31.8
v 15.2 0.2 -31.8
v 15.3 0.2 -31.8
v 15.2 0.2 -32.8
v 15.3 0.2 -32.8
v 33.3 0.2 -32.9
v 33.4 0.2 -32.9
v 13 0.2 -33.2
v 13.1 0.2 -33.2
v 13 0.2 -33.7
v 13.1 0.2 -33.7
v 16.9 0.2 -33.7
v 31.7 0.2 -33.7
v 33.3 0.2 -33.7
v 33.4 0.2 -33.7
v 13.1 0.2 -34.2
v 13.2 0.2 -34.2
v 13.1 0.2 -34.7
v 13.2 0.2 -34.7
v 33.3 0.2 -34.9
v 33.4 0.2 -34.9
v 16.9 0.2 -35.3
v 17.7 0.2 -35.3
v 18.9 0.2 -35.3
v 19.7 0.2 -35.3
v 20.9 0.2 -35.3
v 21.7 0.2 -35.3
v 22.9 0.2 -35.3
v 23.7 0.2 -35.3
v 24.9 0.2 -35.3
v 25.7 0.2 -35.3
v 26.9 0.2 -35.3
v 27.7 0.2 -35.3
v 28.9 0.2 -35.3
v 29.7 0.2 -35.3
v 30.9 0.2 -35.3
v 31.7 0.2 -35.3
v 32.9 0.2 -35.3
v 33.3 0.2 -35.3
v 33.4 0.2 -35.3
v 16.9 0.2 -35.4
v 17.7 0.2 -35.4
v 18.9 0.2 -35.4
v 19.7 0.2 -35.4
v 20.9 0.2 -35.4
v 21.7 0.2 -35.4
v 22.9 0.2 -35.4
v 23.7 0.2 -35.4
v 24.9 0.2 -35.4
v 25.7 0.2 -35.4
v 26.9 0.2 -35.4
v 27.7 0.2 -35.4
v 28.9 0.2 -35.4
v 29.7 0.2 -35.4
v 30.9 0.2 -35.4
v 31.7 0.2 -35.4
v 32.9 0.2 -35.4
v 33.3 0.2 -35.4
v 13.1 0.2 -36.4
v 13.2 0.2 -36.4
v 13.1 0.2 -36.9
v 13.2 0.2 -36.9
v 16.9 0.2 -36.9
v 34.9 0.2 -36.9
v 15.2 0.2 -37.8
v 15.3 0.2 -37.8
v 13 0.2 -37.9
v 13.1 0.2 -37.9
v 12.8 0.2 -38.4
v 13 0.2 -38.4
v 13.7 0.2 -38.4
v 15.2 0.2 -38.4
v 15.3 0.2 -38.4
v 16.9 0.2 -38.4
v 38.4 0.2 -38.4

# faces
f 3/3/1 2/3/1 1/3/1
f 4/3/1 2/3/1 3/3/1
f 5/3/1 3/3/1 1/3/1
f 6/2/1 4/2/1 3/2/1
f 6/3/1 3/3/1 5/3/1
f 7/3/1 2/3/1 4/3/1
f 7/2/1 4/2/1 6/2/1
f 8/3/1 2/3/1 7/3/1
f 9/3/2 10/3/2 11/3/2
f 11/3/2 10/3/2 12/3/2
f 11/5/2 12/5/2 13/5/2
f 13/5/2 12/5/2 14/5/2
f 17/3/3 16/3/3 15/3/3
f 18/3/3 16/3/3 17/3/3
f 19/3/3 17/3/3 15/3/3
f 19/1/3 18/1/3 17/1/3
f 20/1/3 18/1/3 19/1/3
f 21/3/3 19/3/3 15/3/3
f 21/6/3 20/6/3 19/6/3
f 22/6/3 20/6/3 21/6/3
f 23/3/3 21/3/3 15/3/3
f 23/5/3 22/5/3 21/5/3
f 24/5/3 22/5/3 23/5/3
f 25/3/3 23/3/3 15/3/3
f 25/6/3 24/6/3 23/6/3
f 26/6/3 24/6/3 25/6/3
f 27/3/3 25/3/3 15/3/3
f 27/5/3 26/5/3 25/5/3
f 28/5/3 26/5/3 27/5/3
f 29/3/3 27/3/3 15/3/3
f 29/6/3 28/6/3 27/6/3
f 30/6/3 28/6/3 29/6/3
f 31/3/3 29/3/3 15/3/3
f 32/5/3 30/5/3 29/5/3
f 32/3/3 29/3/3 31/3/3
f 33/5/3 30/5/3 32/5/3
f 34/3/4 35/3/4 36/3/4
f 36/3/4 35/3/4 37/3/4
f 34/3/4 36/3/4 38/3/4
f 36/1/4 37/1/4 38/1/4
f 38/1/4 37/1/4 39/1/4
f 34/3/4 38/3/4 40/3/4
f 38/6/4 39/6/4 40/6/4
f 40/6/4 39/6/4 41/6/4
f 34/3/4 40/3/4 42/3/4
f 40/5/4 41/5/4 42/5/4
f 42/5/4 41/5/4 43/5/4
f 34/3/4 42/3/4 44/3/4
f 42/6/4 43/6/4 44/6/4
f 44/6/4 43/6/4 45/6/4
f 34/3/4 44/3/4 46/3/4
f 44/5/4 45/5/4 47/5/4
f 46/3/4 44/3/4 47/3/4
f 47/5/4 45/5/4 48/5/4
f 51/3/5 50/3/5 49/3/5
f 52/3/5 50/3/5 51/3/5
f 53/3/6 54/3/6 62/3/6
f 54/1/6 55/1/6 63/1/6
f 62/3/6 54/3/6 63/3/6
f 57/6/6 58/6/6 64/6/6
f 58/5/6 59/5/6 64/5/6
f 59/6/6 60/6/6 65/6/6
f 64/5/6 59/5/6 65/5/6
f 55/6/6 56/6/6 66/6/6
f 66/6/6 56/6/6 67/6/6
f 53/3/6 62/3/6 68/3/6
f 62/1/6 63/1/6 68/1/6
f 63/1/6 55/1/6 69/1/6
f 68/1/6 63/1/6 69/1/6
f 68/3/6 69/3/6 70/3/6
f 69/1/6 55/1/6 70/1/6
f 70/1/6 55/1/6 71/1/6
f 68/3/6 70/3/6 72/3/6
f 70/3/6 71/3/6 72/3/6
f 71/1/6 55/1/6 73/1/6
f 72/3/6 71/3/6 73/3/6
f 66/5/6 67/5/6 74/5/6
f 55/6/6 66/6/6 74/6/6
f 67/6/6 56/6/6 75/6/6
f 74/5/6 67/5/6 75/5/6
f 53/3/6 68/3/6 76/3/6
f 68/3/6 72/3/6 76/3/6
f 72/1/6 73/1/6 77/1/6
f 76/3/6 72/3/6 77/3/6
f 57/6/6 64/6/6 78/6/6
f 64/6/6 65/6/6 78/6/6
f 65/6/6 60/6/6 79/6/6
f 78/6/6 65/6/6 79/6/6
f 57/6/6 78/6/6 80/6/6
f 78/5/6 79/5/6 80/5/6
f 79/6/6 60/6/6 81/6/6
f 80/5/6 79/5/6 81/5/6
f 55/6/6 74/6/6 82/6/6
f 74/6/6 75/6/6 82/6/6
f 75/6/6 56/6/6 83/6/6
f 82/6/6 75/6/6 83/6/6
f 76/1/6 77/1/6 84/1/6
f 53/3/6 76/3/6 84/3/6
f 77/1/6 73/1/6 85/1/6
f 84/1/6 77/1/6 85/1/6
f 84/3/6 85/3/6 86/3/6
f 85/1/6 73/1/6 86/1/6
f 73/1/6 55/1/6 87/1/6
f 86/1/6 73/1/6 87/1/6
f 84/3/6 86/3/6 88/3/6
f 86/3/6 87/3/6 88/3/6
f 87/1/6 55/1/6 89/1/6
f 88/3/6 87/3/6 89/3/6
f 55/6/6 82/6/6 90/6/6
f 82/5/6 83/5/6 90/5/6
f 83/6/6 56/6/6 91/6/6
f 90/5/6 83/5/6 91/5/6
f 57/6/6 80/6/6 92/6/6
f 80/6/6 81/6/6 92/6/6
f 81/6/6 60/6/6 93/6/6
f 92/6/6 81/6/6 93/6/6
f 84/3/6 88/3/6 94/3/6
f 53/3/6 84/3/6 94/3/6
f 88/1/6 89/1/6 95/1/6
f 94/3/6 88/3/6 95/3/6
f 53/3/6 94/3/6 96/3/6
f 94/1/6 95/1/6 96/1/6
f 95/1/6 89/1/6 97/1/6
f 96/1/6 95/1/6 97/1/6
f 96/3/6 97/3/6 98/3/6
f 97/1/6 89/1/6 98/1/6
f 89/1/6 55/1/6 99/1/6
f 98/1/6 89/1/6 99/1/6
f 57/6/6 92/6/6 100/6/6
f 92/5/6 93/5/6 100/5/6
f 93/6/6 60/6/6 101/6/6
f 100/5/6 93/5/6 101/5/6
f 55/6/6 90/6/6 102/6/6
f 90/6/6 91/6/6 102/6/6
f 91/6/6 56/6/6 103/6/6
f 102/6/6 91/6/6 103/6/6
f 96/3/6 98/3/6 104/3/6
f 98/3/6 99/3/6 104/3/6
f 99/1/6 55/1/6 105/1/6
f 104/3/6 99/3/6 105/3/6
f 55/6/6 102/6/6 106/6/6
f 102/5/6 103/5/6 106/5/6
f 103/6/6 56/6/6 107/6/6
f 106/5/6 103/5/6 107/5/6
f 57/6/6 100/6/6 108/6/6
f 100/6/6 101/6/6 108/6/6
f 101/6/6 60/6/6 109/6/6
f 108/6/6 101/6/6 109/6/6
f 96/3/6 104/3/6 110/3/6
f 104/1/6 105/1/6 110/1/6
f 105/1/6 55/1/6 111/1/6
f 110/1/6 105/1/6 111/1/6
f 96/3/6 110/3/6 112/3/6
f 110/3/6 111/3/6 112/3/6
f 111/1/6 55/1/6 113/1/6
f 112/3/6 111/3/6 113/3/6
f 108/5/6 109/5/6 114/5/6
f 57/6/6 108/6/6 114/6/6
f 109/6/6 60/6/6 115/6/6
f 114/5/6 109/5/6 115/5/6
f 55/6/6 106/6/6 116/6/6
f 106/6/6 107/6/6 116/6/6
f 107/6/6 56/6/6 117/6/6
f 116/6/6 107/6/6 117/6/6
f 96/3/6 112/3/6 118/3/6
f 112/1/6 113/1/6 118/1/6
f 113/1/6 55/1/6 119/1/6
f 118/1/6 113/1/6 119/1/6
f 96/3/6 118/3/6 120/3/6
f 118/3/6 119/3/6 120/3/6
f 119/1/6 55/1/6 121/1/6
f 120/3/6 119/3/6 121/3/6
f 55/6/6 116/6/6 122/6/6
f 116/5/6 117/5/6 122/5/6
f 117/6/6 56/6/6 123/6/6
f 122/5/6 117/5/6 123/5/6
f 57/6/6 114/6/6 124/6/6
f 114/6/6 115/6/6 124/6/6
f 115/6/6 60/6/6 125/6/6
f 124/6/6 115/6/6 125/6/6
f 57/6/6 124/6/6 126/6/6
f 124/5/6 125/5/6 126/5/6
f 125/6/6 60/6/6 127/6/6
f 126/5/6 125/5/6 127/5/6
f 55/6/6 122/6/6 128/6/6
f 122/6/6 123/6/6 128/6/6
f 123/6/6 56/6/6 129/6/6
f 128/6/6 123/6/6 129/6/6
f 96/3/6 120/3/6 130/3/6
f 53/3/6 96/3/6 130/3/6
f 120/1/6 121/1/6 131/1/6
f 130/3/6 120/3/6 131/3/6
f 55/6/6 128/6/6 132/6/6
f 128/5/6 129/5/6 132/5/6
f 129/6/6 56/6/6 133/6/6
f 132/5/6 129/5/6 133/5/6
f 57/6/6 126/6/6 134/6/6
f 126/6/6 127/6/6 134/6/6
f 127/6/6 60/6/6 135/6/6
f 134/6/6 127/6/6 135/6/6
f 57/6/6 134/6/6 136/6/6
f 134/5/6 135/5/6 136/5/6
f 135/6/6 60/6/6 137/6/6
f 136/5/6 135/5/6 137/5/6
f 55/6/6 132/6/6 138/6/6
f 132/6/6 133/6/6 138/6/6
f 133/6/6 56/6/6 139/6/6
f 138/6/6 133/6/6 139/6/6
f 53/3/6 130/3/6 140/3/6
f 130/1/6 131/1/6 140/1/6
f 131/1/6 121/1/6 141/1/6
f 140/1/6 131/1/6 141/1/6
f 140/3/6 141/3/6 142/3/6
f 141/1/6 121/1/6 142/1/6
f 121/1/6 55/1/6 143/1/6
f 142/1/6 121/1/6 143/1/6
f 55/6/6 138/6/6 144/6/6
f 138/5/6 139/5/6 144/5/6
f 139/6/6 56/6/6 145/6/6
f 144/5/6 139/5/6 145/5/6
f 140/3/6 142/3/6 146/3/6
f 142/3/6 143/3/6 146/3/6
f 143/1/6 55/1/6 147/1/6
f 146/3/6 143/3/6 147/3/6
f 57/6/6 136/6/6 148/6/6
f 136/6/6 137/6/6 148/6/6
f 137/6/6 60/6/6 149/6/6
f 148/6/6 137/6/6 149/6/6
f 53/3/6 140/3/6 150/3/6
f 140/3/6 146/3/6 150/3/6
f 146/1/6 147/1/6 151/1/6
f 150/3/6 146/3/6 151/3/6
f 148/5/6 149/5/6 152/5/6
f 57/6/6 148/6/6 152/6/6
f 149/6/6 60/6/6 153/6/6
f 152/5/6 149/5/6 153/5/6
f 55/6/6 144/6/6 154/6/6
f 144/6/6 145/6/6 154/6/6
f 145/6/6 56/6/6 155/6/6
f 154/6/6 145/6/6 155/6/6
f 53/3/6 150/3/6 156/3/6
f 150/1/6 151/1/6 157/1/6
f 156/3/6 150/3/6 157/3/6
f 53/3/6 156/3/6 158/3/6
f 156/1/6 157/1/6 158/1/6
f 157/1/6 151/1/6 159/1/6
f 158/1/6 157/1/6 159/1/6
f 55/6/6 154/6/6 160/6/6
f 160/6/6 154/6/6 161/6/6
f 161/6/6 154/6/6 162/6/6
f 162/6/6 154/6/6 163/6/6
f 163/6/6 154/6/6 164/6/6
f 164/6/6 154/6/6 165/6/6
f 165/6/6 154/6/6 166/6/6
f 154/5/6 155/5/6 167/5/6
f 166/6/6 154/6/6 167/6/6
f 155/6/6 56/6/6 168/6/6
f 167/5/6 155/5/6 168/5/6
f 168/6/6 56/6/6 169/6/6
f 169/6/6 56/6/6 170/6/6
f 170/6/6 56/6/6 171/6/6
f 171/6/6 56/6/6 172/6/6
f 172/6/6 56/6/6 173/6/6
f 173/6/6 56/6/6 174/6/6
f 174/6/6 56/6/6 175/6/6
f 175/6/6 56/6/6 176/6/6
f 57/6/6 152/6/6 177/6/6
f 152/6/6 153/6/6 177/6/6
f 153/6/6 60/6/6 178/6/6
f 177/6/6 153/6/6 178/6/6
f 53/3/6 158/3/6 179/3/6
f 158/3/6 159/3/6 179/3/6
f 159/1/6 151/1/6 180/1/6
f 179/3/6 159/3/6 180/3/6
f 53/3/6 179/3/6 181/3/6
f 179/2/6 180/2/6 182/2/6
f 181/3/6 179/3/6 182/3/6
f 53/3/6 181/3/6 183/3/6
f 181/2/6 182/2/6 184/2/6
f 183/3/6 181/3/6 184/3/6
f 183/2/6 184/2/6 185/2/6
f 184/2/6 182/2/6 186/2/6
f 185/2/6 184/2/6 186/2/6
f 185/3/6 186/3/6 187/3/6
f 186/2/6 182/2/6 187/2/6
f 182/2/6 180/2/6 188/2/6
f 187/2/6 182/2/6 188/2/6
f 187/3/6 188/3/6 189/3/6
f 188/2/6 180/2/6 189/2/6
f 180/1/6 151/1/6 190/1/6
f 189/2/6 180/2/6 190/2/6
f 57/6/6 177/6/6 191/6/6
f 177/5/6 178/5/6 191/5/6
f 178/6/6 60/6/6 192/6/6
f 191/5/6 178/5/6 192/5/6
f 55/6/6 160/6/6 193/6/6
f 160/4/6 161/4/6 193/4/6
f 161/6/6 162/6/6 194/6/6
f 193/4/6 161/4/6 194/4/6
f 162/4/6 163/4/6 195/4/6
f 194/6/6 162/6/6 195/6/6
f 163/6/6 164/6/6 196/6/6
f 195/4/6 163/4/6 196/4/6
f 164/4/6 165/4/6 197/4/6
f 196/6/6 164/6/6 197/6/6
f 165/6/6 166/6/6 198/6/6
f 197/4/6 165/4/6 198/4/6
f 166/4/6 167/4/6 199/4/6
f 198/6/6 166/6/6 199/6/6
f 167/6/6 168/6/6 200/6/6
f 199/4/6 167/4/6 200/4/6
f 168/6/6 169/6/6 200/6/6
f 200/6/6 169/6/6 201/6/6
f 169/4/6 170/4/6 202/4/6
f 201/6/6 169/6/6 202/6/6
f 170/6/6 171/6/6 203/6/6
f 202/4/6 170/4/6 203/4/6
f 171/4/6 172/4/6 204/4/6
f 203/6/6 171/6/6 204/6/6
f 172/6/6 173/6/6 205/6/6
f 204/4/6 172/4/6 205/4/6
f 173/4/6 174/4/6 206/4/6
f 205/6/6 173/6/6 206/6/6
f 174/6/6 175/6/6 207/6/6
f 206/4/6 174/4/6 207/4/6
f 175/4/6 176/4/6 208/4/6
f 207/6/6 175/6/6 208/6/6
f 176/6/6 56/6/6 209/6/6
f 208/4/6 176/4/6 209/4/6
f 187/3/6 189/3/6 210/3/6
f 189/3/6 190/3/6 210/3/6
f 190/1/6 151/1/6 211/1/6
f 210/3/6 190/3/6 211/3/6
f 197/6/6 198/6/6 212/6/6
f 196/6/6 197/6/6 212/6/6
f 193/6/6 194/6/6 212/6/6
f 199/6/6 200/6/6 212/6/6
f 194/6/6 195/6/6 212/6/6
f 195/6/6 196/6/6 212/6/6
f 198/6/6 199/6/6 212/6/6
f 200/5/6 201/5/6 212/5/6
f 207/6/6 208/6/6 213/6/6
f 212/5/6 201/5/6 213/5/6
f 206/6/6 207/6/6 213/6/6
f 202/6/6 203/6/6 213/6/6
f 201/6/6 202/6/6 213/6/6
f 203/6/6 204/6/6 213/6/6
f 208/6/6 209/6/6 213/6/6
f 204/6/6 205/6/6 213/6/6
f 205/6/6 206/6/6 213/6/6
f 187/3/6 210/3/6 214/3/6
f 185/3/6 187/3/6 214/3/6
f 210/1/6 211/1/6 215/1/6
f 214/3/6 210/3/6 215/3/6
f 57/6/6 191/6/6 216/6/6
f 191/6/6 192/6/6 216/6/6
f 192/6/6 60/6/6 217/6/6
f 216/6/6 192/6/6 217/6/6
f 185/3/6 214/3/6 218/3/6
f 214/1/6 215/1/6 218/1/6
f 215/1/6 211/1/6 219/1/6
f 218/1/6 215/1/6 219/1/6
f 57/6/6 216/6/6 220/6/6
f 216/5/6 217/5/6 220/5/6
f 217/6/6 60/6/6 221/6/6
f 220/5/6 217/5/6 221/5/6
f 193/6/6 212/6/6 222/6/6
f 212/6/6 213/6/6 222/6/6
f 213/6/6 209/6/6 223/6/6
f 222/6/6 213/6/6 223/6/6
f 193/6/6 222/6/6 224/6/6
f 222/5/6 223/5/6 224/5/6
f 223/6/6 209/6/6 225/6/6
f 224/5/6 223/5/6 225/5/6
f 219/1/6 211/1/6 226/1/6
f 218/3/6 219/3/6 226/3/6
f 211/1/6 151/1/6 227/1/6
f 226/1/6 211/1/6 227/1/6
f 57/6/6 220/6/6 228/6/6
f 220/6/6 221/6/6 228/6/6
f 221/6/6 60/6/6 229/6/6
f 228/6/6 221/6/6 229/6/6
f 227/1/6 151/1/6 230/1/6
f 226/3/6 227/3/6 230/3/6
f 151/1/6 147/1/6 231/1/6
f 230/1/6 151/1/6 231/1/6
f 230/3/6 231/3/6 232/3/6
f 231/1/6 147/1/6 232/1/6
f 147/1/6 55/1/6 233/1/6
f 232/1/6 147/1/6 233/1/6
f 230/3/6 232/3/6 234/3/6
f 232/3/6 233/3/6 234/3/6
f 233/1/6 55/1/6 235/1/6
f 234/3/6 233/3/6 235/3/6
f 57/6/6 228/6/6 236/6/6
f 228/5/6 229/5/6 236/5/6
f 229/6/6 60/6/6 237/6/6
f 236/5/6 229/5/6 237/5/6
f 230/3/6 234/3/6 238/3/6
f 226/3/6 230/3/6 238/3/6
f 234/1/6 235/1/6 239/1/6
f 238/3/6 234/3/6 239/3/6
f 193/6/6 224/6/6 240/6/6
f 224/6/6 225/6/6 240/6/6
f 225/6/6 209/6/6 241/6/6
f 240/6/6 225/6/6 241/6/6
f 193/6/6 240/6/6 242/6/6
f 240/5/6 241/5/6 242/5/6
f 241/6/6 209/6/6 243/6/6
f 242/5/6 241/5/6 243/5/6
f 236/6/6 237/6/6 244/6/6
f 57/6/6 236/6/6 244/6/6
f 237/6/6 60/6/6 245/6/6
f 244/6/6 237/6/6 245/6/6
f 218/3/6 226/3/6 246/3/6
f 226/3/6 238/3/6 246/3/6
f 238/1/6 239/1/6 247/1/6
f 246/3/6 238/3/6 247/3/6
f 218/3/6 246/3/6 248/3/6
f 246/1/6 247/1/6 248/1/6
f 247/1/6 239/1/6 249/1/6
f 248/1/6 247/1/6 249/1/6
f 56/5/6 57/5/6 250/5/6
f 243/6/6 209/6/6 250/6/6
f 209/6/6 56/6/6 250/6/6
f 242/6/6 243/6/6 250/6/6
f 57/6/6 244/6/6 251/6/6
f 250/5/6 57/5/6 251/5/6
f 244/5/6 245/5/6 252/5/6
f 251/6/6 244/6/6 252/6/6
f 245/6/6 60/6/6 253/6/6
f 252/5/6 245/5/6 253/5/6
f 249/1/6 239/1/6 254/1/6
f 248/3/6 249/3/6 254/3/6
f 239/1/6 235/1/6 255/1/6
f 254/1/6 239/1/6 255/1/6
f 248/3/6 254/3/6 256/3/6
f 254/3/6 255/3/6 256/3/6
f 255/1/6 235/1/6 257/1/6
f 256/3/6 255/3/6 257/3/6
f 252/6/6 253/6/6 258/6/6
f 251/6/6 252/6/6 258/6/6
f 250/6/6 251/6/6 258/6/6
f 253/6/6 60/6/6 259/6/6
f 258/6/6 253/6/6 259/6/6
f 242/6/6 250/6/6 260/6/6
f 250/6/6 258/6/6 260/6/6
f 260/6/6 258/6/6 261/6/6
f 261/6/6 258/6/6 262/6/6
f 262/6/6 258/6/6 263/6/6
f 263/6/6 258/6/6 264/6/6
f 264/6/6 258/6/6 265/6/6
f 265/6/6 258/6/6 266/6/6
f 266/6/6 258/6/6 267/6/6
f 267/6/6 258/6/6 268/6/6
f 268/6/6 258/6/6 269/6/6
f 269/6/6 258/6/6 270/6/6
f 270/6/6 258/6/6 271/6/6
f 271/6/6 258/6/6 272/6/6
f 272/6/6 258/6/6 273/6/6
f 273/6/6 258/6/6 274/6/6
f 274/6/6 258/6/6 275/6/6
f 275/6/6 258/6/6 276/6/6
f 258/5/6 259/5/6 277/5/6
f 276/6/6 258/6/6 277/6/6
f 259/6/6 60/6/6 278/6/6
f 277/5/6 259/5/6 278/5/6
f 242/6/6 260/6/6 279/6/6
f 260/5/6 261/5/6 279/5/6
f 261/6/6 262/6/6 280/6/6
f 279/5/6 261/5/6 280/5/6
f 262/5/6 263/5/6 281/5/6
f 280/6/6 262/6/6 281/6/6
f 263/6/6 264/6/6 282/6/6
f 281/5/6 263/5/6 282/5/6
f 264/5/6 265/5/6 283/5/6
f 282/6/6 264/6/6 283/6/6
f 265/6/6 266/6/6 284/6/6
f 283/5/6 265/5/6 284/5/6
f 266/5/6 267/5/6 285/5/6
f 284/6/6 266/6/6 285/6/6
f 267/6/6 268/6/6 286/6/6
f 285/5/6 267/5/6 286/5/6
f 268/5/6 269/5/6 287/5/6
f 286/6/6 268/6/6 287/6/6
f 269/6/6 270/6/6 288/6/6
f 287/5/6 269/5/6 288/5/6
f 270/5/6 271/5/6 289/5/6
f 288/6/6 270/6/6 289/6/6
f 271/6/6 272/6/6 290/6/6
f 289/5/6 271/5/6 290/5/6
f 272/5/6 273/5/6 291/5/6
f 290/6/6 272/6/6 291/6/6
f 273/6/6 274/6/6 292/6/6
f 291/5/6 273/5/6 292/5/6
f 274/5/6 275/5/6 293/5/6
f 292/6/6 274/6/6 293/6/6
f 275/6/6 276/6/6 294/6/6
f 293/5/6 275/5/6 294/5/6
f 276/5/6 277/5/6 295/5/6
f 294/6/6 276/6/6 295/6/6
f 277/6/6 278/6/6 296/6/6
f 295/5/6 277/5/6 296/5/6
f 248/3/6 256/3/6 297/3/6
f 256/1/6 257/1/6 297/1/6
f 257/1/6 235/1/6 298/1/6
f 297/1/6 257/1/6 298/1/6
f 248/3/6 297/3/6 299/3/6
f 297/3/6 298/3/6 299/3/6
f 298/1/6 235/1/6 300/1/6
f 299/3/6 298/3/6 300/3/6
f 293/6/6 294/6/6 301/6/6
f 292/6/6 293/6/6 301/6/6
f 295/6/6 296/6/6 301/6/6
f 291/6/6 292/6/6 301/6/6
f 290/6/6 291/6/6 301/6/6
f 289/6/6 290/6/6 301/6/6
f 288/6/6 289/6/6 301/6/6
f 287/6/6 288/6/6 301/6/6
f 286/6/6 287/6/6 301/6/6
f 285/6/6 286/6/6 301/6/6
f 284/6/6 285/6/6 301/6/6
f 283/6/6 284/6/6 301/6/6
f 282/6/6 283/6/6 301/6/6
f 281/6/6 282/6/6 301/6/6
f 280/6/6 281/6/6 301/6/6
f 279/6/6 280/6/6 301/6/6
f 242/6/6 279/6/6 301/6/6
f 294/6/6 295/6/6 301/6/6
f 60/5/6 61/5/6 302/5/6
f 301/6/6 296/6/6 302/6/6
f 296/6/6 278/6/6 302/6/6
f 278/6/6 60/6/6 302/6/6
f 242/6/6 301/6/6 303/6/6
f 193/6/6 242/6/6 303/6/6
f 303/6/6 301/6/6 304/6/6
f 248/3/6 299/3/6 305/3/6
f 218/3/6 248/3/6 305/3/6
f 299/1/6 300/1/6 306/1/6
f 305/3/6 299/3/6 306/3/6
f 218/3/6 305/3/6 307/3/6
f 185/3/6 218/3/6 307/3/6
f 305/1/6 306/1/6 308/1/6
f 307/3/6 305/3/6 308/3/6
f 235/1/6 55/1/6 309/1/6
f 308/1/6 306/1/6 309/1/6
f 300/1/6 235/1/6 309/1/6
f 193/6/6 303/6/6 309/6/6
f 55/6/6 193/6/6 309/6/6
f 306/1/6 300/1/6 309/1/6
f 303/5/6 304/5/6 310/5/6
f 309/6/6 303/6/6 310/6/6
f 304/6/6 301/6/6 311/6/6
f 310/5/6 304/5/6 311/5/6
f 301/5/6 302/5/6 312/5/6
f 311/6/6 301/6/6 312/6/6
f 302/5/6 61/5/6 313/5/6
f 312/5/6 302/5/6 313/5/6
